g Debris01
v 0.20836696 -0.132284492 0.00641738065
v 0.130236998 0.0478888638 0.125182301
v 0.23982738 0.0123576699 -0.0625940934
v 0.130236998 0.0478888638 0.125182301
v 0.0100919968 0.0513412803 0.302915692
v -0.00699876109 0.17741403 0.166927159
v -0.158371553 -0.0374617688 0.302585036
v -0.191387534 -0.0782148689 0.151605681
v -0.181474656 0.179717824 0.0213287678
v -0.194298014 0.074419044 0.300828874
v -0.154429451 0.167193368 0.194680244
v -0.154229164 0.144528598 -0.147020876
v -0.148688197 -0.0832839161 -0.0490689948
v 0.00350030651 -0.128242671 -0.126426011
v -0.0375363491 0.171130806 -0.229564056
v 0.150816202 -0.110970348 -0.147920415
v 0.20836696 -0.132284492 0.00641738065
v 0.23982738 0.0123576699 -0.0625940934
v 0.144528136 0.0158042181 -0.228095621
v 0.0100919968 0.0513412803 0.302915692
v -0.194298014 0.074419044 0.300828874
v -0.154429451 0.167193368 0.194680244
v -0.00699876109 0.17741403 0.166927159
v 0.0185840148 -0.0842215046 0.286284655
v -0.158371553 -0.0374617688 0.302585036
v -0.194298014 0.074419044 0.300828874
v 0.0100919968 0.0513412803 0.302915692
v -0.148688197 -0.0832839161 -0.0490689948
v -0.191387534 -0.0782148689 0.151605681
v 0.017324632 -0.159137383 0.100911513
v 0.00350030651 -0.128242671 -0.126426011
v 0.00350030651 -0.128242671 -0.126426011
v 0.017324632 -0.159137383 0.100911513
v 0.20836696 -0.132284492 0.00641738065
v 0.150816202 -0.110970348 -0.147920415
v -0.191387534 -0.0782148689 0.151605681
v -0.158371553 -0.0374617688 0.302585036
v 0.0185840148 -0.0842215046 0.286284655
v 0.017324632 -0.159137383 0.100911513
v -0.0375363491 0.171130806 -0.229564056
v -0.0285500158 0.227177709 -0.052300632
v -0.181474656 0.179717824 0.0213287678
v -0.154229164 0.144528598 -0.147020876
v -0.0285500158 0.227177709 -0.052300632
v -0.00699876109 0.17741403 0.166927159
v -0.154429451 0.167193368 0.194680244
v -0.181474656 0.179717824 0.0213287678
v 0.23982738 0.0123576699 -0.0625940934
v 0.130236998 0.0478888638 0.125182301
v -0.00699876109 0.17741403 0.166927159
v -0.0285500158 0.227177709 -0.052300632
v -0.0375363491 0.171130806 -0.229564056
v 0.144528136 0.0158042181 -0.228095621
v 0.23982738 0.0123576699 -0.0625940934
v -0.0285500158 0.227177709 -0.052300632
v -0.191387534 -0.0782148689 0.151605681
v -0.148688197 -0.0832839161 -0.0490689948
v -0.154229164 0.144528598 -0.147020876
v -0.181474656 0.179717824 0.0213287678
v 0.0100919968 0.0513412803 0.302915692
v 0.130236998 0.0478888638 0.125182301
v 0.0185840148 -0.0842215046 0.286284655
v 0.017324632 -0.159137383 0.100911513
v 0.20836696 -0.132284492 0.00641738065
v 0.00350030651 -0.128242671 -0.126426011
v 0.150816202 -0.110970348 -0.147920415
v 0.144528136 0.0158042181 -0.228095621
v -0.0375363491 0.171130806 -0.229564056
vt 0.37500006 0.625
vt 0.50000006 0.75
vt 0.50000006 0.625
vt 0.50000006 0.75
vt 0.50000006 0.87500006
vt 0.62500006 0.87500006
vt 0.37500006 0
vt 0.37500003 0.125000015
vt 0.62500006 0.125000015
vt 0.50000006 0
vt 0.62500006 0
vt 0.625 0.25
vt 0.375 0.25
vt 0.37500003 0.37500006
vt 0.62500006 0.37500006
vt 0.375 0.5
vt 0.37500006 0.625
vt 0.50000006 0.625
vt 0.50000006 0.50000006
vt 0.50000006 0.87500006
vt 0.50000006 1.00000012
vt 0.62500006 1.00000012
vt 0.62500006 0.87500006
vt 0.37500003 0.87500006
vt 0.37500006 1.00000012
vt 0.50000006 1.00000012
vt 0.50000006 0.87500006
vt 0.125000015 0.50000006
vt 0.125000015 0.625000119
vt 0.25 0.625
vt 0.25000003 0.50000006
vt 0.25000003 0.50000006
vt 0.25 0.625
vt 0.37500006 0.625
vt 0.375 0.5
vt 0.125000015 0.625000119
vt 0.125000015 0.750000119
vt 0.25000003 0.75000006
vt 0.25 0.625
vt 0.75000006 0.50000006
vt 0.75 0.625
vt 0.875000119 0.625000119
vt 0.875000119 0.50000006
vt 0.75 0.625
vt 0.75000006 0.75000006
vt 0.875000119 0.750000119
vt 0.875000119 0.625000119
vt 0.50000006 0.625
vt 0.50000006 0.75
vt 0.75000006 0.75000006
vt 0.75 0.625
vt 0.75000006 0.50000006
vt 0.50000006 0.50000006
vt 0.50000006 0.625
vt 0.75 0.625
vt 0.37500003 0.125000015
vt 0.375 0.25
vt 0.625 0.25
vt 0.62500006 0.125000015
vt 0.50000006 0.87500006
vt 0.50000006 0.75
vt 0.25000003 0.75000006
vt 0.25 0.625
vt 0.37500006 0.625
vt 0.37500003 0.37500006
vt 0.375 0.5
vt 0.50000006 0.50000006
vt 0.62500006 0.37500006
vn 0.866620123 0.0484480821 0.49661085
vn 0.866620123 0.0484480821 0.49661085
vn 0.866620123 0.0484480821 0.49661085
vn 0.681623876 0.577313542 0.449553013
vn 0.681623876 0.577313542 0.449553013
vn 0.681623876 0.577313542 0.449553013
vn -0.99600333 0.060982272 0.0652571991
vn -0.99600333 0.060982272 0.0652571991
vn -0.99600333 0.060982272 0.0652571991
vn -0.99600333 0.060982272 0.0652571991
vn -0.99600333 0.060982272 0.0652571991
vn -0.496722817 -0.347283542 -0.795399606
vn -0.496722817 -0.347283542 -0.795399606
vn -0.496722817 -0.347283542 -0.795399606
vn -0.496722817 -0.347283542 -0.795399606
vn 0.846824348 -0.314358652 -0.429030448
vn 0.846824348 -0.314358652 -0.429030448
vn 0.846824348 -0.314358652 -0.429030448
vn 0.846824348 -0.314358652 -0.429030448
vn 0.0759648532 0.736176491 0.672512949
vn 0.0759648532 0.736176491 0.672512949
vn 0.0759648532 0.736176491 0.672512949
vn 0.0759648532 0.736176491 0.672512949
vn 0.0271045826 -0.0551352724 0.99811101
vn 0.0271045826 -0.0551352724 0.99811101
vn 0.0271045826 -0.0551352724 0.99811101
vn 0.0271045826 -0.0551352724 0.99811101
vn -0.353494465 -0.932002306 -0.0800835639
vn -0.353494465 -0.932002306 -0.0800835639
vn -0.353494465 -0.932002306 -0.0800835639
vn -0.353494465 -0.932002306 -0.0800835639
vn 0.077369608 -0.985758901 -0.149309129
vn 0.077369608 -0.985758901 -0.149309129
vn 0.077369608 -0.985758901 -0.149309129
vn 0.077369608 -0.985758901 -0.149309129
vn -0.242497072 -0.909554243 0.337499768
vn -0.242497072 -0.909554243 0.337499768
vn -0.242497072 -0.909554243 0.337499768
vn -0.242497072 -0.909554243 0.337499768
vn -0.390323639 0.884885073 -0.254216284
vn -0.390323639 0.884885073 -0.254216284
vn -0.390323639 0.884885073 -0.254216284
vn -0.390323639 0.884885073 -0.254216284
vn -0.129830196 0.976673663 0.171034083
vn -0.129830196 0.976673663 0.171034083
vn -0.129830196 0.976673663 0.171034083
vn -0.129830196 0.976673663 0.171034083
vn 0.650472701 0.741029024 0.166616738
vn 0.650472701 0.741029024 0.166616738
vn 0.650472701 0.741029024 0.166616738
vn 0.650472701 0.741029024 0.166616738
vn 0.602748752 0.740583837 -0.297034442
vn 0.602748752 0.740583837 -0.297034442
vn 0.602748752 0.740583837 -0.297034442
vn 0.602748752 0.740583837 -0.297034442
vn -0.981220484 -0.0747219771 -0.177828729
vn -0.981220484 -0.0747219771 -0.177828729
vn -0.981220484 -0.0747219771 -0.177828729
vn -0.981220484 -0.0747219771 -0.177828729
vn 0.75047189 -0.340786248 0.566265523
vn 0.75047189 -0.340786248 0.566265523
vn 0.75047189 -0.340786248 0.566265523
vn 0.75047189 -0.340786248 0.566265523
vn 0.75047189 -0.340786248 0.566265523
vn -0.224034712 -0.405998856 -0.885987282
vn -0.224034712 -0.405998856 -0.885987282
vn -0.224034712 -0.405998856 -0.885987282
vn -0.224034712 -0.405998856 -0.885987282
g Debris01_0
f 3/3/3 2/2/2 1/1/1
f 6/6/6 5/5/5 4/4/4
f 9/9/9 8/8/8 7/7/7
f 7/7/7 10/10/10 9/9/9
f 10/10/10 11/11/11 9/9/9
f 14/14/14 13/13/13 12/12/12
f 15/15/15 14/14/14 12/12/12
f 18/18/18 17/17/17 16/16/16
f 19/19/19 18/18/18 16/16/16
f 22/22/22 21/21/21 20/20/20
f 23/23/23 22/22/22 20/20/20
f 26/26/26 25/25/25 24/24/24
f 27/27/27 26/26/26 24/24/24
f 30/30/30 29/29/29 28/28/28
f 31/31/31 30/30/30 28/28/28
f 34/34/34 33/33/33 32/32/32
f 35/35/35 34/34/34 32/32/32
f 38/38/38 37/37/37 36/36/36
f 39/39/39 38/38/38 36/36/36
f 42/42/42 41/41/41 40/40/40
f 43/43/43 42/42/42 40/40/40
f 46/46/46 45/45/45 44/44/44
f 47/47/47 46/46/46 44/44/44
f 50/50/50 49/49/49 48/48/48
f 51/51/51 50/50/50 48/48/48
f 54/54/54 53/53/53 52/52/52
f 55/55/55 54/54/54 52/52/52
f 58/58/58 57/57/57 56/56/56
f 59/59/59 58/58/58 56/56/56
f 62/62/62 61/61/61 60/60/60
f 61/61/61 62/62/62 63/63/63
f 63/63/63 64/64/64 61/61/61
f 67/67/67 66/66/66 65/65/65
f 68/68/68 67/67/67 65/65/65
