g Debris02
v 0.165437803 -0.0745345131 0.0135739967
v 0.0210654568 0.118118323 0.0400485732
v 0.139180452 0.0691006333 -0.0298510715
v 0.0210654568 0.118118323 0.0400485732
v -0.00296903285 0.0917984024 0.263632566
v -0.102113992 0.117241867 0.121465445
v -0.156563208 0.0562963076 0.247724667
v -0.11885158 -0.0483843684 0.261604428
v -0.179473415 0.0347251967 0.144085646
v -0.206727132 0.0894456953 -0.0241936482
v -0.18301411 -0.0764657333 0.139969483
v -0.173819557 -0.0201520883 -0.191266567
v -0.161887541 -0.132716641 -0.0724792108
v -0.0200891532 -0.140301675 -0.10541328
v -0.0648289472 0.0273208413 -0.205424607
v 0.0750358924 -0.0821290836 -0.0885403827
v 0.165437803 -0.0745345131 0.0135739967
v 0.139180452 0.0691006333 -0.0298510715
v 0.047614973 0.0154407555 -0.131452173
v -0.00296903285 0.0917984024 0.263632566
v -0.156563208 0.0562963076 0.247724667
v -0.179473415 0.0347251967 0.144085646
v -0.102113992 0.117241867 0.121465445
v 0.0144992359 -0.034095142 0.268661588
v -0.11885158 -0.0483843684 0.261604428
v -0.156563208 0.0562963076 0.247724667
v -0.00296903285 0.0917984024 0.263632566
v -0.161887541 -0.132716641 -0.0724792108
v -0.18301411 -0.0764657333 0.139969483
v 0.0117279738 -0.106501035 0.0870201364
v -0.0200891532 -0.140301675 -0.10541328
v -0.0200891532 -0.140301675 -0.10541328
v 0.0117279738 -0.106501035 0.0870201364
v 0.165437803 -0.0745345131 0.0135739967
v 0.0750358924 -0.0821290836 -0.0885403827
v -0.18301411 -0.0764657333 0.139969483
v -0.11885158 -0.0483843684 0.261604428
v 0.0144992359 -0.034095142 0.268661588
v 0.0117279738 -0.106501035 0.0870201364
v -0.0648289472 0.0273208413 -0.205424607
v -0.0643052906 0.129011944 -0.0720936954
v -0.206727132 0.0894456953 -0.0241936482
v -0.173819557 -0.0201520883 -0.191266567
v -0.0643052906 0.129011944 -0.0720936954
v -0.102113992 0.117241867 0.121465445
v -0.179473415 0.0347251967 0.144085646
v -0.206727132 0.0894456953 -0.0241936482
v 0.139180452 0.0691006333 -0.0298510715
v 0.0210654568 0.118118323 0.0400485732
v -0.102113992 0.117241867 0.121465445
v -0.0643052906 0.129011944 -0.0720936954
v -0.0648289472 0.0273208413 -0.205424607
v 0.047614973 0.0154407555 -0.131452173
v 0.139180452 0.0691006333 -0.0298510715
v -0.0643052906 0.129011944 -0.0720936954
v -0.18301411 -0.0764657333 0.139969483
v -0.161887541 -0.132716641 -0.0724792108
v -0.173819557 -0.0201520883 -0.191266567
v -0.206727132 0.0894456953 -0.0241936482
v 0.165437803 -0.0745345131 0.0135739967
v 0.0117279738 -0.106501035 0.0870201364
v 0.0144992359 -0.034095142 0.268661588
v 0.0210654568 0.118118323 0.0400485732
v -0.00296903285 0.0917984024 0.263632566
v -0.0200891532 -0.140301675 -0.10541328
v 0.0750358924 -0.0821290836 -0.0885403827
v 0.047614973 0.0154407555 -0.131452173
v -0.0648289472 0.0273208413 -0.205424607
vt 0.37500006 0.625
vt 0.50000006 0.75
vt 0.50000006 0.625
vt 0.50000006 0.75
vt 0.50000006 0.87500006
vt 0.62500006 0.87500006
vt 0.50000006 0
vt 0.37500006 0
vt 0.62500006 0
vt 0.62500006 0.125000015
vt 0.37500003 0.125000015
vt 0.625 0.25
vt 0.375 0.25
vt 0.37500003 0.37500006
vt 0.62500006 0.37500006
vt 0.375 0.5
vt 0.37500006 0.625
vt 0.50000006 0.625
vt 0.50000006 0.50000006
vt 0.50000006 0.87500006
vt 0.50000006 1.00000012
vt 0.62500006 1.00000012
vt 0.62500006 0.87500006
vt 0.37500003 0.87500006
vt 0.37500006 1.00000012
vt 0.50000006 1.00000012
vt 0.50000006 0.87500006
vt 0.125000015 0.50000006
vt 0.125000015 0.625000119
vt 0.25 0.625
vt 0.25000003 0.50000006
vt 0.25000003 0.50000006
vt 0.25 0.625
vt 0.37500006 0.625
vt 0.375 0.5
vt 0.125000015 0.625000119
vt 0.125000015 0.750000119
vt 0.25000003 0.75000006
vt 0.25 0.625
vt 0.75000006 0.50000006
vt 0.75 0.625
vt 0.875000119 0.625000119
vt 0.875000119 0.50000006
vt 0.75 0.625
vt 0.75000006 0.75000006
vt 0.875000119 0.750000119
vt 0.875000119 0.625000119
vt 0.50000006 0.625
vt 0.50000006 0.75
vt 0.75000006 0.75000006
vt 0.75 0.625
vt 0.75000006 0.50000006
vt 0.50000006 0.50000006
vt 0.50000006 0.625
vt 0.75 0.625
vt 0.37500003 0.125000015
vt 0.375 0.25
vt 0.625 0.25
vt 0.62500006 0.125000015
vt 0.37500006 0.625
vt 0.25 0.625
vt 0.25000003 0.75000006
vt 0.50000006 0.75
vt 0.50000006 0.87500006
vt 0.37500003 0.37500006
vt 0.375 0.5
vt 0.50000006 0.50000006
vt 0.62500006 0.37500006
vn 0.578546464 0.331122041 0.745414138
vn 0.578546464 0.331122041 0.745414138
vn 0.578546464 0.331122041 0.745414138
vn 0.0752885491 0.989351809 0.124558039
vn 0.0752885491 0.989351809 0.124558039
vn 0.0752885491 0.989351809 0.124558039
vn -0.953248858 -0.064439714 0.295235664
vn -0.953248858 -0.064439714 0.295235664
vn -0.953248858 -0.064439714 0.295235664
vn -0.953248858 -0.064439714 0.295235664
vn -0.953248858 -0.064439714 0.295235664
vn -0.0481951982 -0.620795906 -0.782489419
vn -0.0481951982 -0.620795906 -0.782489419
vn -0.0481951982 -0.620795906 -0.782489419
vn -0.0481951982 -0.620795906 -0.782489419
vn 0.753961444 -0.0661538243 -0.653579295
vn 0.753961444 -0.0661538243 -0.653579295
vn 0.753961444 -0.0661538243 -0.653579295
vn 0.753961444 -0.0661538243 -0.653579295
vn -0.437412649 0.869114697 0.230889261
vn -0.437412649 0.869114697 0.230889261
vn -0.437412649 0.869114697 0.230889261
vn -0.437412649 0.869114697 0.230889261
vn -0.0899739414 0.0599942468 0.994135499
vn -0.0899739414 0.0599942468 0.994135499
vn -0.0899739414 0.0599942468 0.994135499
vn -0.0899739414 0.0599942468 0.994135499
vn -0.0532623678 -0.974462867 0.218140736
vn -0.0532623678 -0.974462867 0.218140736
vn -0.0532623678 -0.974462867 0.218140736
vn -0.0532623678 -0.974462867 0.218140736
vn 0.338886321 -0.940789819 -0.00839992519
vn 0.338886321 -0.940789819 -0.00839992519
vn 0.338886321 -0.940789819 -0.00839992519
vn 0.338886321 -0.940789819 -0.00839992519
vn -0.00151600188 -0.949148774 0.314824462
vn -0.00151600188 -0.949148774 0.314824462
vn -0.00151600188 -0.949148774 0.314824462
vn -0.00151600188 -0.949148774 0.314824462
vn -0.391126394 0.73241353 -0.557306588
vn -0.391126394 0.73241353 -0.557306588
vn -0.391126394 0.73241353 -0.557306588
vn -0.391126394 0.73241353 -0.557306588
vn -0.443038553 0.883948088 0.149508551
vn -0.443038553 0.883948088 0.149508551
vn -0.443038553 0.883948088 0.149508551
vn -0.443038553 0.883948088 0.149508551
vn 0.173484251 0.984161317 -0.036466226
vn 0.173484251 0.984161317 -0.036466226
vn 0.173484251 0.984161317 -0.036466226
vn 0.173484251 0.984161317 -0.036466226
vn 0.38201949 0.694893181 -0.609249294
vn 0.38201949 0.694893181 -0.609249294
vn 0.38201949 0.694893181 -0.609249294
vn 0.38201949 0.694893181 -0.609249294
vn -0.980940521 -0.185223535 -0.0587192141
vn -0.980940521 -0.185223535 -0.0587192141
vn -0.980940521 -0.185223535 -0.0587192141
vn -0.980940521 -0.185223535 -0.0587192141
vn 0.913801372 0.0915183201 0.39571631
vn 0.913801372 0.0915183201 0.39571631
vn 0.913801372 0.0915183201 0.39571631
vn 0.913801372 0.0915183201 0.39571631
vn 0.913801372 0.0915183201 0.39571631
vn 0.439308971 -0.330627918 -0.83528012
vn 0.439308971 -0.330627918 -0.83528012
vn 0.439308971 -0.330627918 -0.83528012
vn 0.439308971 -0.330627918 -0.83528012
g Debris02_0
f 3/3/3 2/2/2 1/1/1
f 6/6/6 5/5/5 4/4/4
f 9/9/9 8/8/8 7/7/7
f 8/8/8 9/9/9 10/10/10
f 10/10/10 11/11/11 8/8/8
f 14/14/14 13/13/13 12/12/12
f 15/15/15 14/14/14 12/12/12
f 18/18/18 17/17/17 16/16/16
f 19/19/19 18/18/18 16/16/16
f 22/22/22 21/21/21 20/20/20
f 23/23/23 22/22/22 20/20/20
f 26/26/26 25/25/25 24/24/24
f 27/27/27 26/26/26 24/24/24
f 30/30/30 29/29/29 28/28/28
f 31/31/31 30/30/30 28/28/28
f 34/34/34 33/33/33 32/32/32
f 35/35/35 34/34/34 32/32/32
f 38/38/38 37/37/37 36/36/36
f 39/39/39 38/38/38 36/36/36
f 42/42/42 41/41/41 40/40/40
f 43/43/43 42/42/42 40/40/40
f 46/46/46 45/45/45 44/44/44
f 47/47/47 46/46/46 44/44/44
f 50/50/50 49/49/49 48/48/48
f 51/51/51 50/50/50 48/48/48
f 54/54/54 53/53/53 52/52/52
f 55/55/55 54/54/54 52/52/52
f 58/58/58 57/57/57 56/56/56
f 59/59/59 58/58/58 56/56/56
f 62/62/62 61/61/61 60/60/60
f 60/60/60 63/63/63 62/62/62
f 63/63/63 64/64/64 62/62/62
f 67/67/67 66/66/66 65/65/65
f 68/68/68 67/67/67 65/65/65
