g Debris03
v 0.136747882 -0.132284492 0.00641737878
v 0.0843222961 0.0379940681 0.119818285
v 0.158545539 0.0123576699 -0.0625940934
v 0.0843222961 0.0379940681 0.119818285
v 0.00441750977 0.0426149033 0.283879697
v -0.000999461394 0.0813295469 0.120235555
v -0.105437495 -0.0460864715 0.263051659
v -0.136594296 -0.074969478 0.146902427
v -0.139125124 0.140966713 -0.0067688385
v -0.119713806 0.0583330616 0.163783893
v -0.119344749 0.0379278362 0.233772114
v -0.143384874 0.0173727572 -0.2101942
v -0.115307301 -0.103810519 -0.0592669845
v -0.00541426055 -0.129202873 -0.126903057
v -0.0508006699 0.0955880135 -0.267095089
v 0.096873261 -0.110970348 -0.1479204
v 0.136747882 -0.132284492 0.00641737878
v 0.158545539 0.0123576699 -0.0625940934
v 0.0925165042 0.0158042181 -0.228095621
v 0.00441750977 0.0426149033 0.283879697
v -0.119344749 0.0379278362 0.233772114
v -0.119713806 0.0583330616 0.163783893
v -0.000999461394 0.0813295469 0.120235555
v 0.0060251723 -0.083611466 0.285185248
v -0.105437495 -0.0460864715 0.263051659
v -0.119344749 0.0379278362 0.233772114
v 0.00441750977 0.0426149033 0.283879697
v -0.115307301 -0.103810519 -0.0592669845
v -0.136594296 -0.074969478 0.146902427
v 0.0043823272 -0.159137383 0.100911513
v -0.00541426055 -0.129202873 -0.126903057
v -0.00541426055 -0.129202873 -0.126903057
v 0.0043823272 -0.159137383 0.100911513
v 0.136747882 -0.132284492 0.00641737878
v 0.096873261 -0.110970348 -0.1479204
v -0.136594296 -0.074969478 0.146902427
v -0.105437495 -0.0460864715 0.263051659
v 0.0060251723 -0.083611466 0.285185248
v 0.0043823272 -0.159137383 0.100911513
v -0.0508006699 0.0955880135 -0.267095089
v -0.0403736755 0.170114622 -0.0806506053
v -0.139125124 0.140966713 -0.0067688385
v -0.143384874 0.0173727572 -0.2101942
v -0.0403736755 0.170114622 -0.0806506053
v -0.000999461394 0.0813295469 0.120235555
v -0.119713806 0.0583330616 0.163783893
v -0.139125124 0.140966713 -0.0067688385
v 0.158545539 0.0123576699 -0.0625940934
v 0.0843222961 0.0379940681 0.119818285
v -0.000999461394 0.0813295469 0.120235555
v -0.0403736755 0.170114622 -0.0806506053
v -0.0508006699 0.0955880135 -0.267095089
v 0.0925165042 0.0158042181 -0.228095621
v 0.158545539 0.0123576699 -0.0625940934
v -0.0403736755 0.170114622 -0.0806506053
v -0.136594296 -0.074969478 0.146902427
v -0.115307301 -0.103810519 -0.0592669845
v -0.143384874 0.0173727572 -0.2101942
v -0.139125124 0.140966713 -0.0067688385
v 0.136747882 -0.132284492 0.00641737878
v 0.0043823272 -0.159137383 0.100911513
v 0.0060251723 -0.083611466 0.285185248
v 0.0843222961 0.0379940681 0.119818285
v 0.00441750977 0.0426149033 0.283879697
v -0.00541426055 -0.129202873 -0.126903057
v 0.096873261 -0.110970348 -0.1479204
v 0.0925165042 0.0158042181 -0.228095621
v -0.0508006699 0.0955880135 -0.267095089
vt 0.37500006 0.625
vt 0.50000006 0.75
vt 0.50000006 0.625
vt 0.50000006 0.75
vt 0.50000006 0.87500006
vt 0.62500006 0.87500006
vt 0.37500006 0
vt 0.37500003 0.125000015
vt 0.62500006 0.125000015
vt 0.62500006 0
vt 0.50000006 0
vt 0.625 0.25
vt 0.375 0.25
vt 0.37500003 0.37500006
vt 0.62500006 0.37500006
vt 0.375 0.5
vt 0.37500006 0.625
vt 0.50000006 0.625
vt 0.50000006 0.50000006
vt 0.50000006 0.87500006
vt 0.50000006 1.00000012
vt 0.62500006 1.00000012
vt 0.62500006 0.87500006
vt 0.37500003 0.87500006
vt 0.37500006 1.00000012
vt 0.50000006 1.00000012
vt 0.50000006 0.87500006
vt 0.125000015 0.50000006
vt 0.125000015 0.625000119
vt 0.25 0.625
vt 0.25000003 0.50000006
vt 0.25000003 0.50000006
vt 0.25 0.625
vt 0.37500006 0.625
vt 0.375 0.5
vt 0.125000015 0.625000119
vt 0.125000015 0.750000119
vt 0.25000003 0.75000006
vt 0.25 0.625
vt 0.75000006 0.50000006
vt 0.75 0.625
vt 0.875000119 0.625000119
vt 0.875000119 0.50000006
vt 0.75 0.625
vt 0.75000006 0.75000006
vt 0.875000119 0.750000119
vt 0.875000119 0.625000119
vt 0.50000006 0.625
vt 0.50000006 0.75
vt 0.75000006 0.75000006
vt 0.75 0.625
vt 0.75000006 0.50000006
vt 0.50000006 0.50000006
vt 0.50000006 0.625
vt 0.75 0.625
vt 0.37500003 0.125000015
vt 0.375 0.25
vt 0.625 0.25
vt 0.62500006 0.125000015
vt 0.37500006 0.625
vt 0.25 0.625
vt 0.25000003 0.75000006
vt 0.50000006 0.75
vt 0.50000006 0.87500006
vt 0.37500003 0.37500006
vt 0.375 0.5
vt 0.50000006 0.50000006
vt 0.62500006 0.37500006
vn 0.927437901 0.0377545096 0.372066587
vn 0.927437901 0.0377545096 0.372066587
vn 0.927437901 0.0377545096 0.372066587
vn 0.445150495 0.87459147 0.192173854
vn 0.445150495 0.87459147 0.192173854
vn 0.445150495 0.87459147 0.192173854
vn -0.984198213 0.0670078844 0.163901627
vn -0.984198213 0.0670078844 0.163901627
vn -0.984198213 0.0670078844 0.163901627
vn -0.984198213 0.0670078844 0.163901627
vn -0.984198213 0.0670078844 0.163901627
vn -0.265761137 -0.653104186 -0.709102213
vn -0.265761137 -0.653104186 -0.709102213
vn -0.265761137 -0.653104186 -0.709102213
vn -0.265761137 -0.653104186 -0.709102213
vn 0.916939795 -0.235840499 -0.321870476
vn 0.916939795 -0.235840499 -0.321870476
vn 0.916939795 -0.235840499 -0.321870476
vn 0.916939795 -0.235840499 -0.321870476
vn -0.116512887 0.962150812 0.24635452
vn -0.116512887 0.962150812 0.24635452
vn -0.116512887 0.962150812 0.24635452
vn -0.116512887 0.962150812 0.24635452
vn -0.276383847 0.118349858 0.953732312
vn -0.276383847 0.118349858 0.953732312
vn -0.276383847 0.118349858 0.953732312
vn -0.276383847 0.118349858 0.953732312
vn -0.405136824 -0.914163172 -0.0130299628
vn -0.405136824 -0.914163172 -0.0130299628
vn -0.405136824 -0.914163172 -0.0130299628
vn -0.405136824 -0.914163172 -0.0130299628
vn 0.116436437 -0.982279837 -0.146863014
vn 0.116436437 -0.982279837 -0.146863014
vn 0.116436437 -0.982279837 -0.146863014
vn 0.116436437 -0.982279837 -0.146863014
vn -0.382033139 -0.859205663 0.340317816
vn -0.382033139 -0.859205663 0.340317816
vn -0.382033139 -0.859205663 0.340317816
vn -0.382033139 -0.859205663 0.340317816
vn -0.624725163 0.705372214 -0.334915757
vn -0.624725163 0.705372214 -0.334915757
vn -0.624725163 0.705372214 -0.334915757
vn -0.624725163 0.705372214 -0.334915757
vn 0.00788721908 0.908419013 0.417986393
vn 0.00788721908 0.908419013 0.417986393
vn 0.00788721908 0.908419013 0.417986393
vn 0.00788721908 0.908419013 0.417986393
vn 0.560052812 0.807765543 0.183999196
vn 0.560052812 0.807765543 0.183999196
vn 0.560052812 0.807765543 0.183999196
vn 0.560052812 0.807765543 0.183999196
vn 0.578433573 0.766034067 -0.280368209
vn 0.578433573 0.766034067 -0.280368209
vn 0.578433573 0.766034067 -0.280368209
vn 0.578433573 0.766034067 -0.280368209
vn -0.995401621 -0.095613502 -0.0057961531
vn -0.995401621 -0.095613502 -0.0057961531
vn -0.995401621 -0.095613502 -0.0057961531
vn -0.995401621 -0.095613502 -0.0057961531
vn 0.848466694 -0.276828647 0.451076657
vn 0.848466694 -0.276828647 0.451076657
vn 0.848466694 -0.276828647 0.451076657
vn 0.848466694 -0.276828647 0.451076657
vn 0.848466694 -0.276828647 0.451076657
vn -0.0730730593 -0.537088156 -0.840355039
vn -0.0730730593 -0.537088156 -0.840355039
vn -0.0730730593 -0.537088156 -0.840355039
vn -0.0730730593 -0.537088156 -0.840355039
g Debris03_0
f 3/3/3 2/2/2 1/1/1
f 6/6/6 5/5/5 4/4/4
f 9/9/9 8/8/8 7/7/7
f 7/7/7 10/10/10 9/9/9
f 7/7/7 11/11/11 10/10/10
f 14/14/14 13/13/13 12/12/12
f 15/15/15 14/14/14 12/12/12
f 18/18/18 17/17/17 16/16/16
f 19/19/19 18/18/18 16/16/16
f 22/22/22 21/21/21 20/20/20
f 23/23/23 22/22/22 20/20/20
f 26/26/26 25/25/25 24/24/24
f 27/27/27 26/26/26 24/24/24
f 30/30/30 29/29/29 28/28/28
f 31/31/31 30/30/30 28/28/28
f 34/34/34 33/33/33 32/32/32
f 35/35/35 34/34/34 32/32/32
f 38/38/38 37/37/37 36/36/36
f 39/39/39 38/38/38 36/36/36
f 42/42/42 41/41/41 40/40/40
f 43/43/43 42/42/42 40/40/40
f 46/46/46 45/45/45 44/44/44
f 47/47/47 46/46/46 44/44/44
f 50/50/50 49/49/49 48/48/48
f 51/51/51 50/50/50 48/48/48
f 54/54/54 53/53/53 52/52/52
f 55/55/55 54/54/54 52/52/52
f 58/58/58 57/57/57 56/56/56
f 59/59/59 58/58/58 56/56/56
f 62/62/62 61/61/61 60/60/60
f 60/60/60 63/63/63 62/62/62
f 63/63/63 64/64/64 62/62/62
f 67/67/67 66/66/66 65/65/65
f 68/68/68 67/67/67 65/65/65
